<svg viewBox="0 -6 512.001 512" xmlns="http://www.w3.org/2000/svg"><path d="m338.5 178.957031h-57.167969v-17.554687c0-15.785156 12.796875-28.582032 28.582031-28.582032 15.789063 0 28.585938 12.796876 28.585938 28.582032zm0 0" fill="#fcd888"/><path d="m395.667969 178.957031h-57.167969v-6.550781c0-15.789062 12.796875-28.585938 28.585938-28.585938 15.785156 0 28.582031 12.796876 28.582031 28.585938zm0 0" fill="#ffae55"/><path d="m173.5 178.957031h-57.167969v-6.550781c0-15.789062 12.796875-28.585938 28.582031-28.585938 15.789063 0 28.585938 12.796876 28.585938 28.585938zm0 0" fill="#ffae55"/><path d="m230.667969 178.957031h-57.167969v-17.554687c0-15.785156 12.796875-28.582032 28.585938-28.582032 15.785156 0 28.582031 12.796876 28.582031 28.582032zm0 0" fill="#fcd888"/><path d="m230.667969 88.496094h50.664062v90.460937h-50.664062zm0 0" fill="#ffae55"/><path d="m285.839844 58.660156c0 16.476563-13.359375 29.839844-29.839844 29.839844s-29.839844-13.363281-29.839844-29.839844c0-16.480468 29.839844-48.660156 29.839844-48.660156s29.839844 32.175781 29.839844 48.660156zm0 0" fill="#ff4f4f"/><path d="m429.472656 290.5c-19.40625.390625-35.261718-15.226562-35.261718-34.546875 0 19.085937-15.46875 34.554687-34.554688 34.554687-19.082031 0-34.550781-15.46875-34.550781-34.554687 0 19.085937-15.46875 34.554687-34.554688 34.554687-19.082031 0-34.550781-15.46875-34.550781-34.554687 0 19.085937-15.46875 34.554687-34.554688 34.554687-19.082031 0-34.550781-15.46875-34.550781-34.554687 0 19.085937-15.46875 34.554687-34.554687 34.554687-19.082032 0-34.550782-15.46875-34.550782-34.554687 0 19.320313-15.855468 34.9375-35.261718 34.546875-6.484375-.128906-12.550782-2.179688-17.710938-5.582031v162.191406h382.367188v-162.191406c-5.160156 3.402343-11.226563 5.453125-17.710938 5.582031zm0 0" fill="#ffd4b8"/><path d="m463.316406 255.273438v-56.625c0-10.875-8.816406-19.691407-19.691406-19.691407h-375.25c-10.875 0-19.691406 8.816407-19.691406 19.691407v56.625c0 18.628906 15.21875 34.855468 33.84375 35.226562 19.40625.390625 35.261718-15.226562 35.261718-34.546875 0-1.605469 0-1.605469 0 0 0 19.085937 15.46875 34.554687 34.554688 34.554687 19.082031 0 34.550781-15.46875 34.550781-34.554687 0-1.605469 0-1.605469 0 0 0 19.085937 15.46875 34.554687 34.554688 34.554687 19.082031 0 34.550781-15.46875 34.550781-34.554687 0-1.605469 0-1.605469 0 0 0 19.085937 15.46875 34.554687 34.554688 34.554687 19.082031 0 34.550781-15.46875 34.550781-34.554687 0-1.605469 0-1.605469 0 0 0 19.085937 15.46875 34.554687 34.554687 34.554687 19.082032 0 34.550782-15.46875 34.550782-34.554687 0-1.605469 0-1.605469 0 0 0 19.320313 15.855468 34.9375 35.261718 34.546875 18.625-.371094 33.84375-16.597656 33.84375-35.226562zm0 0" fill="#ff6a81"/><path d="m64.816406 333.210938h382.367188v65.695312h-382.367188zm0 0" fill="#b06d5d"/><path d="m400.1875 376.671875c-.648438 0-1.308594-.070313-1.949219-.203125-.640625-.128906-1.269531-.316406-1.867187-.566406-.601563-.25-1.191406-.5625-1.730469-.921875-.550781-.359375-1.0625-.78125-1.519531-1.238281-.460938-.460938-.882813-.972657-1.242188-1.523438-.359375-.539062-.667968-1.117188-.917968-1.726562-.25-.601563-.441407-1.230469-.570313-1.871094s-.199219-1.300782-.199219-1.949219c0-.660156.070313-1.3125.199219-1.960937.128906-.628907.320313-1.261719.570313-1.871094.25-.597656.558593-1.179688.917968-1.71875.359375-.550782.78125-1.0625 1.242188-1.519532.457031-.460937.96875-.882812 1.519531-1.25.539063-.359374 1.128906-.671874 1.730469-.921874.597656-.25 1.226562-.4375 1.867187-.570313 1.292969-.257813 2.621094-.257813 3.910157 0 .632812.132813 1.261718.320313 1.871093.570313.601563.25 1.179688.5625 1.71875.921874.550781.367188 1.0625.789063 1.523438 1.25.46875.457032.878906.96875 1.25 1.519532.359375.539062.667969 1.121094.917969 1.71875.25.609375.441406 1.242187.570312 1.871094.128906.648437.1875 1.300781.1875 1.960937 0 .648437-.058594 1.308594-.1875 1.949219s-.320312 1.269531-.570312 1.871094c-.25.609374-.558594 1.1875-.917969 1.726562-.371094.550781-.78125 1.0625-1.25 1.523438-.460938.457031-.972657.878906-1.523438 1.238281-.539062.359375-1.117187.671875-1.71875.921875-.609375.25-1.238281.4375-1.871093.566406-.648438.132812-1.308594.203125-1.960938.203125zm0 0"/><path d="m10 447.109375v17.074219c0 14.160156 11.476562 25.636718 25.636719 25.636718h440.726562c14.15625 0 25.636719-11.476562 25.636719-25.636718v-17.074219zm0 0" fill="#a5abb0"/><path d="m502 437.109375h-44.816406v-147.109375c9.839844-8.335938 16.132812-20.863281 16.132812-34.726562v-56.625c0-16.371094-13.320312-29.691407-29.691406-29.691407h-38.109375c-1.75-19.667969-18.316406-35.136719-38.429687-35.136719-8.972657 0-17.238282 3.078126-23.796876 8.230469-6.691406-11.492187-19.144531-19.230469-33.375-19.230469-6.730468 0-13.066406 1.730469-18.582031 4.777344v-39.101562c0-2.679688-1.054687-5.113282-2.769531-6.90625 4.582031-6.488282 7.277344-14.402344 7.277344-22.933594 0-19.417969-27.078125-49.601562-32.507813-55.457031-1.890625-2.039063-4.546875-3.199219-7.332031-3.199219-2.78125 0-5.4375 1.160156-7.332031 3.199219-5.429688 5.855469-32.507813 36.039062-32.507813 55.457031 0 8.53125 2.695313 16.441406 7.277344 22.933594-1.714844 1.792968-2.765625 4.226562-2.765625 6.90625v39.101562c-5.519531-3.042968-11.855469-4.777344-18.585937-4.777344-14.230469 0-26.683594 7.738282-33.371094 19.230469-6.5625-5.152343-14.828125-8.230469-23.800782-8.230469-20.109374 0-36.679687 15.46875-38.429687 35.132813h-38.109375c-16.371094 0-29.691406 13.320313-29.691406 29.695313v56.621093c0 13.867188 6.292968 26.394531 16.132812 34.730469v147.109375h-44.816406c-5.523438 0-10 4.476563-10 10v17.074219c0 19.648437 15.988281 35.636718 35.636719 35.636718h440.726562c19.648438 0 35.636719-15.988281 35.636719-35.636718v-17.074219c0-5.523437-4.476562-10-10-10zm-427.183594-60.441406h291.203125c5.523438 0 10-4.476563 10-10 0-5.523438-4.476562-10-10-10h-291.203125v-13.457031h362.367188v45.695312h-362.367188zm292.269532-222.847657c9.066406 0 16.640624 6.53125 18.261718 15.136719h-36.527344c1.621094-8.605469 9.195313-15.136719 18.265626-15.136719zm-57.171876-11c10.25 0 18.585938 8.335938 18.585938 18.582032v7.554687h-37.167969v-7.554687c0-10.246094 8.335938-18.582032 18.582031-18.582032zm-69.246093 26.136719v-70.460937h14.949219.382812.382812 14.949219v70.460937zm15.335937-143.738281c10.535156 12.820312 19.835938 27.328125 19.835938 33.441406 0 10.839844-8.738282 19.675782-19.542969 19.835938h-.59375c-10.804687-.160156-19.542969-8.996094-19.542969-19.835938 0-6.097656 9.304688-20.609375 19.84375-33.441406zm-72.503906 136.183594c0-10.246094 8.335938-18.582032 18.585938-18.582032 10.246093 0 18.582031 8.335938 18.582031 18.582032v7.554687h-37.167969zm-38.585938-7.582032c9.070313 0 16.644532 6.53125 18.265626 15.136719h-36.527344c1.621094-8.605469 9.195312-15.136719 18.261718-15.136719zm-86.230468 44.828126c0-5.34375 4.347656-9.691407 9.691406-9.691407h375.25c5.34375 0 9.691406 4.347657 9.691406 9.691407v56.625c0 13.414062-11.011718 24.96875-24.042968 25.230468-6.617188.136719-12.945313-2.355468-17.695313-7.011718-4.75-4.660157-7.367187-10.886719-7.367187-17.539063v-1.203125c0-5.523438-4.476563-10-10-10-5.519532 0-10 4.476562-10 10v1.203125c0 13.539063-11.015626 24.554687-24.554688 24.554687-13.535156 0-24.550781-11.015624-24.550781-24.554687v-1.203125c0-5.523438-4.476563-10-10-10-5.523438 0-10 4.476562-10 10v1.203125c0 13.539063-11.015625 24.554687-24.554688 24.554687-13.535156 0-24.550781-11.015624-24.550781-24.554687v-1.203125c0-5.523438-4.476562-10-10-10s-10 4.476562-10 10v1.203125c0 13.539063-11.015625 24.554687-24.554688 24.554687-13.535156 0-24.550781-11.015624-24.550781-24.554687v-1.203125c0-5.523438-4.480469-10-10-10-5.523437 0-10 4.476562-10 10v1.203125c0 13.539063-11.015625 24.554687-24.554687 24.554687-13.539063 0-24.554688-11.015624-24.554688-24.554687v-1.203125c0-5.523438-4.476562-10-10-10-5.519531 0-10 4.476562-10 10v1.203125c0 6.652344-2.613281 12.878906-7.363281 17.539063-4.75 4.652343-11.035156 7.140624-17.695313 7.011718-13.035156-.261718-24.042968-11.816406-24.042968-25.230468zm23.640625 101.851562c.3125.003906.613281.007812.921875.007812 11.734375 0 22.773437-4.503906 31.175781-12.734374 1.203125-1.179688 2.332031-2.417969 3.382813-3.703126 8.175781 10.023438 20.621093 16.4375 34.539062 16.4375 13.921875 0 26.375-6.421874 34.550781-16.457031 8.175781 10.035157 20.628907 16.457031 34.554688 16.457031 13.921875 0 26.375-6.421874 34.550781-16.457031 8.175781 10.035157 20.628906 16.457031 34.554688 16.457031 13.921874 0 26.375-6.421874 34.550781-16.457031 8.175781 10.035157 20.628906 16.457031 34.554687 16.457031 13.914063 0 26.359375-6.414062 34.535156-16.4375 1.050782 1.285157 2.183594 2.523438 3.386719 3.703126 8.398438 8.234374 19.4375 12.734374 31.171875 12.734374.308594 0 .613282-.003906.921875-.007812 2.558594-.050781 5.070313-.328125 7.511719-.808594v23.519532h-362.371094v-23.519532c2.441406.480469 4.949219.753906 7.507813.808594zm-7.507813 108.40625h362.367188v28.203125h-362.367188zm417.183594 55.277344c0 8.621094-7.015625 15.636718-15.636719 15.636718h-440.726562c-8.621094 0-15.636719-7.015624-15.636719-15.636718v-7.074219h472zm0 0"/></svg>