<svg height="512" viewBox="0 0 60 60" width="512" xmlns="http://www.w3.org/2000/svg"><g id="039---Baking-Spatula" fill="none"><g id="Icons" transform="translate(1 1)"><path id="Shape" d="m35.44 25.39c-23.09 23.09-24 26.83-27.84 30.67-2.83 2.82-4.95 2.12-6.36.7s-2.12-3.53.7-6.36c4-3.95 7.41-4.58 30.67-27.84z" fill="#ff9801"/><path id="Shape" d="m32.61 22.56-1.5 1.5 1.33 1.33c-23.09 23.09-24 26.83-27.84 30.67-.62453268.6548599-1.36329317 1.1902918-2.18 1.58 1.33.67 3.05.54 5.18-1.58 4-4 4.58-7.41 27.84-30.67z" fill="#f57c00"/><path id="Shape" d="m58 11.45v19.55c.0086721.5949634-.2480232 1.1628937-.7003464 1.5494947-.4523232.3866011-1.0532991.551723-1.6396536.4505053-.9962504-.2005094-1.6996146-1.0945447-1.66-2.11v-14.89c0-1.1045695-.8954305-2-2-2h-5c-1.1045695 0-2 .8954305-2 2 .0166995.6206932-.2558332 1.2139382-.7376164 1.6056319-.4817831.3916936-1.1181653.5374038-1.7223836.3943681-.9483359-.2497477-1.5912849-1.1306713-1.54-2.11v-4.89c0-1.1045695-.8954305-2-2-2h-3.46l6.61-6.61c3.54-3.53 7.07-2.82 9.9 0l3.44 3.24c1.6022637 1.51169262 2.5102957 3.61716921 2.51 5.82z" fill="#ffdc00"/><path id="Shape" d="m55.49 5.63-3.44-3.24c-1.9-1.9-4.12-2.83-6.45-2.17 2.11.6 3.19 1.92 6.89 5.41 1.6022637 1.51169262 2.5102957 3.61716921 2.51 5.82v19.55c-.0027454.4779632-.1765734.9391397-.49 1.3.5488222.6132074 1.4172355.8276465 2.1884114.540389s1.2876769-1.0175672 1.3015886-1.840389v-19.55c.0002957-2.20283079-.9077363-4.30830738-2.51-5.82z" fill="#fec108"/><path id="Shape" d="m52.93 14.24-12.93 12.9c-.3751365.3755541-.8841815.5865733-1.415.5865733s-1.0398635-.2110192-1.415-.5865733c-3.17-3.14-4.53-4.55-8.45-8.48-.3755541-.3751365-.5865733-.8841815-.5865733-1.415s.2110192-1.0398635.5865733-1.415l6.82-6.83h3.46c1.1045695 0 2 .8954305 2 2v4.89c-.0512849.9793287.5916641 1.8602523 1.54 2.11.6042183.1430357 1.2406005-.0026745 1.7223836-.3943681.4817832-.3916937.7543159-.9849387.7376164-1.6056319 0-1.1045695.8954305-2 2-2 5.38 0 5.33-.08 5.93.24z" fill="#02a9f4"/><g fill="#0377bc"><path id="Shape" d="m38 11v4.89c-.0433469.8528129.4595349 1.6390797 1.2519061 1.9573826.7923712.318303 1.6994315.0984233 2.2580939-.5473826-.3306109-.3953503-.5112022-.8946322-.51-1.41v-4.89c0-1.1045695-.8954305-2-2-2h-3c1.1045695 0 2 .8954305 2 2z"/><path id="Shape" d="m49 14c.3248925.003271.6440966.0856463.93.24-13.8 13.76-12.86 12.76-12.73 12.9.3751365.3755541.8841815.5865733 1.415.5865733s1.0398635-.2110192 1.415-.5865733l12.9-12.9c-.58-.31-.65-.24-3.93-.24z"/></g></g><g id="Layer_9" fill="#000" transform="translate(0 -1)"><circle id="Oval" cx="5.77" cy="55.23" r="1"/><path id="Shape" d="m53.75 3.68c-3.6-3.59-7.75-3.58-11.31.01-15.44 15.41 10.56-10.43-13.44 13.43-.5648636.5629056-.8823657 1.3275456-.8823657 2.125s.3175021 1.5620944.8823657 2.125l3.19 3.19c-22.19 22.2-26.1 23.28-29.95 27.13-3.69 3.69-2 6.46-.71 7.78.86372007.9479209 2.07792557 1.5008181 3.36 1.53 3.15 0 5.54-3.43 7.54-5.93 8.24-10.3 14.67-16.92 24-26.27 1 1 1.69 1.92 3.18 1.92.7939488.0019547 1.5562971-.3108958 2.12-.87l12.2-12.19c.11.28.07-.87.07 15.23-.0278765 1.686246 1.3138433 3.0771622 3 3.11 1.6568542 0 3-1.3431458 3-3v-19.55c-.0006016-2.4799911-1.024516-4.84982833-2.83-6.55zm-45.86 53.67c-1.9 1.9-3.47 2.18-4.95.71-.91-.91-1.82-2.42.71-5 3.78-3.78 7.83-5 30-27.14l1.35 1.46c-22.49 22.52-23.4 26.26-27.11 29.97zm32.43-28.92c-.3900375.3877236-1.0199625.3877236-1.41 0l-8.49-8.43c-.3877236-.3900375-.3877236-1.0199625 0-1.41l6.58-6.59h3c.5522847 0 1 .4477153 1 1v4.89c-.0196496 1.0717968.5339901 2.0726608 1.4523686 2.6255763.9183784.5529155 2.061972.5738814 3 .055.9380281-.5188813 1.5279818-1.4987795 1.5476314-2.5705763 0-.5522847.4477153-1 1-1h3.76zm17.68 4.57c.004336.2974817-.1240116.5814469-.3501732.7747474s-.5266495.2758615-.8198268.2252526c-.5027473-.1230923-.8495982-.5827743-.83-1.1v-14.9c.0146193-1.1403499-.6382328-2.1841315-1.67-2.67-1-.49-.85-.33-6.33-.33-1.6568542 0-3 1.3431458-3 3 .0071799.3095697-.1294575.6050019-.37.8-.3179493.2648918-.7662137.3065736-1.1275516.1048451-.3613378-.2017285-.561089-.6051859-.5024484-1.0148451v-4.89c0-1.6568542-1.3431458-3-3-3h-1l4.9-4.9c2.81-2.81 5.72-2.86 8.48 0 .27.28-1-.95 3.46 3.26 1.3879903 1.32836014 2.1690057 3.1688086 2.16 5.09z"/><path id="Shape" d="m45.27 6.51-1.64 1.64c-.2884599.28609046-.3751619.71826679-.219371 1.09348151.155791.37521471.5231059.61888111.929371.61651849.53 0 .58-.17 2.35-1.93.73-.74 1.23-.93 1.4-.93.5623471.15248492 1.0625696.47780448 1.43.93.3967603.3397768.9881942.31693227 1.3575632-.05243678.3693691-.36936905.3922136-.96080294.0524368-1.35756322-2.06-2.07-3.7-1.96-5.66-.01z"/></g></g></svg>